# xmcd CD database file
#
# Track frame offsets:
#	150
#	19892
#	40372
#	60390
#	80437
#	97897
#	116070
#	136150
#	153992
#	170720
#
# Disc length: 2509 seconds
#
# Revision: 1
# Processed by: cddbd v1.5.2PL0 Copyright (c) Steve Scherf et al.
# Submitted via: CDex 1.70beta3
#
DISCID=7a09cb0a
DTITLE=NOBODY - NOBODY
DYEAR=1990
DGENRE=J-Rock
TTITLE0=FITNESS LIFE
TTITLE1=BREAK IT UP
TTITLE2=DIRTY EYES
TTITLE3=HOT LINE
TTITLE4=CHE SARA
TTITLE5=GIMME SOME BLUES
TTITLE6=SUMMER'S GONE
TTITLE7=DEEP IN LOVE
TTITLE8=BYE-BYE-BYE
TTITLE9=THE LAST WALTZ
EXTD=YEAR: 1990
EXTT0=
EXTT1=
EXTT2=
EXTT3=
EXTT4=
EXTT5=
EXTT6=
EXTT7=
EXTT8=
EXTT9=
PLAYORDER=
